<?xml version="1.0" encoding="UTF-8"?>
<svg id="_Слой_1" data-name="Слой 1" xmlns="http://www.w3.org/2000/svg" viewBox="0 0 301.23 64.21">
  <defs>
    <style>
      .cls-1 {
        fill: #fff;
      }

      .cls-2 {
        fill: #ea0000;
      }
    </style>
  </defs>
  <g>
    <path class="cls-2" d="m28.54,7.13H7.13L0,4.46V0h28.54l3.57,3.57-3.57,3.57Zm-21.4,1.78v16.94l-5.35,5.35-1.78-1.78V6.24l7.13,2.68ZM0,57.96v-23.19l1.78-1.78,5.35,5.35v16.94l-7.13,2.67Zm32.01,2.68l-3.57,3.57H0v-4.46l7.13-2.67h21.31l3.57,3.57Zm-1.69-34.78V7.13l2.68-2.68,4.46,4.46v20.51l-1.78,1.78-5.35-5.35Zm5.35,7.13l1.78,1.78v20.51l-4.46,4.46-2.68-2.67v-18.73l5.35-5.35Z"/>
    <path class="cls-1" d="m28.55,64.46H-.25v-4.88l7.38-2.75h21.42l3.82,3.82-3.82,3.82Zm-28.3-.5h28.09l3.32-3.32-3.32-3.32H7.18l-6.93,2.6v4.04Zm32.75-3.86l-2.93-2.92v-18.93l5.6-5.6,2.03,2.03v20.72l-4.71,4.71Zm-2.43-3.13l2.43,2.42,4.21-4.21v-20.3l-1.53-1.53-5.1,5.1v18.52ZM-.25,58.33v-23.65l2.03-2.03,5.6,5.6v17.22L-.25,58.33Zm.5-23.44v22.72l6.63-2.49v-16.67l-5.1-5.1-1.53,1.53Zm1.53-3.32L-.25,29.53V5.88l7.63,2.86v17.22l-5.6,5.6Zm-1.53-2.24l1.53,1.53,5.1-5.1V9.09L.25,6.6v22.72Zm35.42,2.24l-5.6-5.6V7.03l2.93-2.93,4.71,4.71v20.72l-2.03,2.03Zm-5.1-5.81l5.1,5.1,1.53-1.53V9.02l-4.21-4.21-2.43,2.43v18.52Zm-1.93-18.37l-21.59-.02L-.25,4.63V-.25h28.89l3.82,3.82-3.82,3.82Zm-21.46-.5h21.25l3.32-3.32-3.32-3.32H.25v4.04l6.93,2.6Z"/>
  </g>
  <g>
    <path class="cls-2" d="m46.37,25.86V7.13l2.67-7.13c2.38.6,3.86,2.08,4.46,4.46v24.97l-1.78,1.78-5.35-5.35Zm5.35,6.24l1.78,1.78v24.97c-.6,2.38-2.08,3.86-4.46,4.46l-2.67-7.13v-18.73l5.35-5.35Z"/>
    <path class="cls-1" d="m48.89,63.61l-2.77-7.43v-18.83l5.6-5.6,2.03,2.03v25.07c-.62,2.53-2.19,4.09-4.65,4.7l-.22.05Zm-2.27-7.48l2.58,6.88c2.17-.61,3.5-1.99,4.06-4.22v-24.81s-1.54-1.53-1.54-1.53l-5.1,5.1v18.58Zm5.1-24.57l-5.6-5.6.02-18.92,2.75-7.34.22.05c2.46.62,4.02,2.18,4.64,4.64v25.13s-2.03,2.03-2.03,2.03Zm-5.1-5.81l5.1,5.1,1.53-1.53V4.46c-.55-2.17-1.88-3.55-4.06-4.16l-2.58,6.88v18.58Z"/>
  </g>
  <g>
    <path class="cls-2" d="m69.56,8.92v16.94l-5.35,5.35-1.78-1.78V6.24l7.13,2.68Zm-7.13,49.05v-23.19l1.78-1.78,5.35,5.35v16.94l-7.13,2.67Zm31.21,6.24h-26.75c-2.38-.59-3.86-2.08-4.46-4.46l7.13-2.67h21.4l2.68,7.13Zm0-57.07h-23.99l-7.13-2.68c.59-2.38,2.08-3.86,4.46-4.46h29.34l-2.68,7.13Zm-.89,21.4l3.57,3.57-3.57,3.57h-8.03l-3.57-3.57,3.57-3.57h8.03Zm5.35,4.46l1.78,1.78v24.97c-.6,2.38-2.08,3.87-4.46,4.46l-2.68-7.13v-18.73l5.35-5.35Z"/>
    <path class="cls-1" d="m95.26,64.5l-2.77-7.43v-18.83l5.6-5.6,2.03,2.03v25.07c-.62,2.53-2.19,4.09-4.65,4.7l-.22.05Zm-2.27-7.48l2.58,6.88c2.17-.61,3.5-1.99,4.06-4.22v-24.8s-1.54-1.53-1.54-1.53l-5.1,5.1v18.58Zm1,7.43h-27.11c-2.52-.62-4.08-2.18-4.7-4.65l-.05-.22,7.43-2.77h21.58l2.86,7.63Zm-31.27-4.55c.61,2.18,1.99,3.51,4.22,4.06h26.33s-2.49-6.64-2.49-6.64h-21.18l-6.88,2.58Zm-.55-1.58v-23.65l2.03-2.03,5.6,5.6v17.22l-7.63,2.86Zm.5-23.44v22.72l6.63-2.49v-16.67l-5.1-5.1-1.53,1.53Zm30.17,1.04h-8.23l-3.82-3.82,3.82-3.82h8.23l3.82,3.82-3.82,3.82Zm-8.03-.5h7.82l3.32-3.32-3.32-3.32h-7.82l-3.32,3.32,3.32,3.32Zm-20.61-3.86l-2.03-2.03V5.88l7.63,2.86v17.22l-5.6,5.6Zm-1.53-2.24l1.53,1.53,5.1-5.1V9.09l-6.63-2.49v22.72Zm31.13-21.94l-24.25-.02-7.34-2.75.05-.22c.62-2.46,2.18-4.03,4.64-4.64h29.76s-2.86,7.63-2.86,7.63Zm-24.12-.5h23.77l2.49-6.63h-28.98c-2.17.55-3.55,1.88-4.16,4.05l6.88,2.58Z"/>
  </g>
  <g>
    <path class="cls-2" d="m108.79,25.86V7.13l2.67-7.13c2.38.6,3.86,2.08,4.46,4.46v24.97l-1.78,1.78-5.35-5.35Zm5.35,6.24l1.78,1.78v24.97c-.6,2.38-2.08,3.86-4.46,4.46l-2.67-7.13v-18.73l5.35-5.35Z"/>
    <path class="cls-1" d="m111.31,63.61l-2.77-7.43v-18.83l5.6-5.6,2.03,2.03v25.07c-.62,2.53-2.19,4.09-4.65,4.7l-.22.05Zm-2.27-7.48l2.58,6.88c2.17-.61,3.5-1.99,4.06-4.22v-24.81s-1.54-1.53-1.54-1.53l-5.1,5.1v18.58Zm5.1-24.57l-5.6-5.6.02-18.92,2.75-7.34.22.05c2.46.62,4.02,2.18,4.64,4.64v25.13s-2.03,2.03-2.03,2.03Zm-5.1-5.81l5.1,5.1,1.53-1.53V4.46c-.55-2.17-1.88-3.55-4.06-4.16l-2.58,6.88v18.58Z"/>
  </g>
  <g>
    <path class="cls-2" d="m131.98,7.13l-7.13-2.68c.59-2.38,2.08-3.86,4.46-4.46h28.45c2.38.6,3.86,2.08,4.46,4.46l-7.13,2.68h-23.1Zm7.94,20.51V8.92h7.13v18.73l-3.57,3.57-3.57-3.57Zm3.57,5.35l3.57,3.57v23.19c-.6,2.38-2.08,3.87-4.46,4.46l-2.67-7.13v-20.51l3.57-3.57Z"/>
    <path class="cls-1" d="m142.43,64.5l-2.77-7.43v-20.61l3.82-3.82,3.82,3.82v23.29c-.62,2.53-2.19,4.09-4.65,4.7l-.22.05Zm-2.27-7.48l2.58,6.88c2.17-.61,3.5-1.99,4.06-4.22v-23.02s-3.32-3.32-3.32-3.32l-3.32,3.32v20.36Zm3.32-25.46l-3.82-3.82V8.67h7.63v19.08l-3.82,3.82Zm-3.32-4.02l3.32,3.32,3.32-3.32V9.17h-6.63v18.37Zm14.96-20.16l-23.23-.02-7.34-2.75.05-.22c.61-2.46,2.17-4.02,4.64-4.64h28.51c2.52.62,4.08,2.18,4.7,4.64l.05.22-7.39,2.77Zm-23.1-.5h23.01l6.88-2.58c-.61-2.17-1.99-3.5-4.22-4.06h-28.39c-2.17.56-3.55,1.89-4.16,4.06l6.88,2.58Z"/>
  </g>
  <g>
    <path class="cls-2" d="m178.26,8.92v16.94l-5.35,5.35-1.78-1.78V6.24l7.13,2.68Zm0,29.43v18.73l-2.68,7.13c-2.38-.59-3.86-2.08-4.46-4.46v-24.97l1.78-1.78,5.35,5.35Zm21.4-31.21h-21.31l-7.13-2.68c.59-2.38,2.08-3.86,4.46-4.46h26.66l-2.68,7.13Zm1.78,21.4l3.57,3.57-3.57,3.57h-23.19l-3.57-3.57,3.57-3.57h23.19Zm0-2.68V7.13l2.68-7.13c2.38.6,3.86,2.08,4.46,4.46v24.97l-1.78,1.78-5.35-5.35Zm5.35,7.13l1.78,1.78v24.97c-.6,2.38-2.08,3.87-4.46,4.46l-2.68-7.13v-18.73l5.35-5.35Z"/>
    <path class="cls-1" d="m203.97,64.5l-2.77-7.43v-18.83l5.6-5.6,2.03,2.03v25.07c-.62,2.53-2.19,4.09-4.65,4.7l-.22.05Zm-2.27-7.48l2.58,6.88c2.17-.61,3.5-1.99,4.06-4.22v-24.8s-1.54-1.53-1.54-1.53l-5.1,5.1v18.58Zm-25.96,7.48l-.22-.05c-2.46-.61-4.03-2.17-4.64-4.64v-25.13s2.03-2.03,2.03-2.03l5.6,5.6-.02,18.92-2.75,7.34Zm-4.36-29.62v24.87c.55,2.17,1.88,3.55,4.05,4.16l2.58-6.88v-18.58l-5.1-5.1-1.53,1.53Zm30.17,1.04h-23.39l-3.82-3.82,3.82-3.82h23.39l3.82,3.82-3.82,3.82Zm-23.19-.5h22.98l3.32-3.32-3.32-3.32h-22.98l-3.32,3.32,3.32,3.32Zm-5.45-3.86l-2.03-2.03V5.88l7.63,2.86v17.22l-5.6,5.6Zm-1.53-2.24l1.53,1.53,5.1-5.1V9.09l-6.63-2.49v22.72Zm35.42,2.24l-5.6-5.6.02-18.92,2.75-7.34.22.05c2.46.62,4.02,2.18,4.64,4.64v25.13s-2.03,2.03-2.03,2.03Zm-5.1-5.81l5.1,5.1,1.53-1.53V4.46c-.55-2.17-1.88-3.55-4.05-4.16l-2.58,6.88v18.58Zm-1.86-18.37l-21.57-.02-7.34-2.75.05-.22c.62-2.46,2.18-4.03,4.64-4.64h27.08s-2.86,7.63-2.86,7.63Zm-21.44-.5h21.09l2.49-6.63h-26.3c-2.17.55-3.55,1.88-4.16,4.05l6.88,2.58Z"/>
  </g>
  <g>
    <path class="cls-2" d="m224.63,8.92v16.94l-5.35,5.35-1.78-1.78V6.24l7.13,2.68Zm0,29.43v18.73l-2.68,7.13c-2.38-.59-3.86-2.08-4.46-4.46v-24.97l1.78-1.78,5.35,5.35Zm21.4-31.21h-21.31l-7.13-2.68c.59-2.38,2.08-3.86,4.46-4.46h26.66l-2.68,7.13Zm1.78,21.4l3.57,3.57-3.57,3.57h-23.19l-3.57-3.57,3.57-3.57h23.19Zm-21.4,8.92h5.35l23.19,23.19c-1.19,2.38-3.57,3.57-7.13,3.57l-21.4-21.4v-5.35Zm21.4-11.59V7.13l2.68-7.13c2.38.6,3.86,2.08,4.46,4.46v24.97l-1.78,1.78-5.35-5.35Z"/>
    <path class="cls-1" d="m222.11,64.5l-.22-.05c-2.46-.61-4.02-2.17-4.64-4.64v-25.13s2.03-2.03,2.03-2.03l5.6,5.6-.02,18.92-2.75,7.34Zm-4.36-29.62v24.87c.55,2.17,1.88,3.55,4.05,4.16l2.58-6.88v-18.58l-5.1-5.1-1.53,1.53Zm30.07,29.57h-.1l-21.55-21.55v-5.7h5.7l23.39,23.39-.08.16c-1.23,2.46-3.71,3.71-7.36,3.71Zm-21.15-21.76l21.25,21.26c3.36-.02,5.56-1.09,6.73-3.27l-22.98-22.98h-5v5Zm21.25-6.78h-23.39l-3.82-3.82,3.82-3.82h23.39l3.82,3.82-3.82,3.82Zm-23.19-.5h22.98l3.32-3.32-3.32-3.32h-22.98l-3.32,3.32,3.32,3.32Zm28.43-3.86l-5.6-5.6.02-18.92,2.75-7.34.22.05c2.46.62,4.02,2.18,4.64,4.64v25.13s-2.03,2.03-2.03,2.03Zm-5.1-5.81l5.1,5.1,1.53-1.53V4.46c-.55-2.17-1.88-3.55-4.05-4.16l-2.58,6.88v18.58Zm-28.79,5.81l-2.03-2.03V5.88l7.63,2.86v17.22l-5.6,5.6Zm-1.53-2.24l1.53,1.53,5.1-5.1V9.09l-6.63-2.49v22.72Zm28.46-21.94l-21.57-.02-7.34-2.75.05-.22c.62-2.46,2.18-4.03,4.64-4.64h27.08s-2.86,7.63-2.86,7.63Zm-21.44-.5h21.09l2.49-6.63h-26.3c-2.17.55-3.55,1.88-4.16,4.05l6.88,2.58Z"/>
  </g>
  <g>
    <path class="cls-2" d="m271,7.13l-7.13-2.68c.59-2.38,2.08-3.86,4.46-4.46h28.45c2.38.6,3.86,2.08,4.46,4.46l-7.13,2.68h-23.1Zm7.94,20.51V8.92h7.13v18.73l-3.57,3.57-3.57-3.57Zm3.57,5.35l3.57,3.57v23.19c-.6,2.38-2.08,3.87-4.46,4.46l-2.67-7.13v-20.51l3.57-3.57Z"/>
    <path class="cls-1" d="m281.46,64.5l-2.77-7.43v-20.61l3.82-3.82,3.82,3.82v23.29c-.62,2.53-2.19,4.09-4.65,4.7l-.22.05Zm-2.27-7.48l2.58,6.88c2.17-.61,3.5-1.99,4.06-4.22v-23.02s-3.32-3.32-3.32-3.32l-3.32,3.32v20.36Zm3.32-25.46l-3.82-3.82V8.67h7.63v19.08l-3.82,3.82Zm-3.32-4.02l3.32,3.32,3.32-3.32V9.17h-6.63v18.37Zm14.96-20.16l-23.23-.02-7.34-2.75.05-.22c.61-2.46,2.17-4.02,4.64-4.64h28.51c2.52.62,4.08,2.18,4.7,4.64l.05.22-7.39,2.77Zm-23.1-.5h23.01l6.88-2.58c-.61-2.17-1.99-3.5-4.22-4.06h-28.39c-2.17.56-3.55,1.89-4.16,4.06l6.88,2.58Z"/>
  </g>
</svg>