<?xml version="1.0" encoding="UTF-8"?>
<svg id="_Слой_1" data-name="Слой 1" xmlns="http://www.w3.org/2000/svg" viewBox="0 0 301.23 64.21">
  <defs>
    <style>
      .cls-1 {
        fill: #ea0000;
      }
    </style>
  </defs>
  <path class="cls-1" d="m28.54,7.13H7.13L0,4.46V0h28.54l3.57,3.57-3.57,3.57Zm-21.4,1.78v16.94l-5.35,5.35-1.78-1.78V6.24l7.13,2.68ZM0,57.96v-23.19l1.78-1.78,5.35,5.35v16.94l-7.13,2.67Zm32.01,2.68l-3.57,3.57H0v-4.46l7.13-2.67h21.31l3.57,3.57Zm-1.69-34.78V7.13l2.68-2.68,4.46,4.46v20.51l-1.78,1.78-5.35-5.35Zm5.35,7.13l1.78,1.78v20.51l-4.46,4.46-2.68-2.67v-18.73l5.35-5.35Z"/>
  <path class="cls-1" d="m46.37,25.86V7.13l2.67-7.13c2.38.6,3.86,2.08,4.46,4.46v24.97l-1.78,1.78-5.35-5.35Zm5.35,6.24l1.78,1.78v24.97c-.6,2.38-2.08,3.86-4.46,4.46l-2.67-7.13v-18.73l5.35-5.35Z"/>
  <path class="cls-1" d="m69.56,8.92v16.94l-5.35,5.35-1.78-1.78V6.24l7.13,2.68Zm-7.13,49.05v-23.19l1.78-1.78,5.35,5.35v16.94l-7.13,2.67Zm31.21,6.24h-26.75c-2.38-.59-3.86-2.08-4.46-4.46l7.13-2.67h21.4l2.68,7.13Zm0-57.07h-23.99l-7.13-2.68c.59-2.38,2.08-3.86,4.46-4.46h29.34l-2.68,7.13Zm-.89,21.4l3.57,3.57-3.57,3.57h-8.03l-3.57-3.57,3.57-3.57h8.03Zm5.35,4.46l1.78,1.78v24.97c-.6,2.38-2.08,3.87-4.46,4.46l-2.68-7.13v-18.73l5.35-5.35Z"/>
  <path class="cls-1" d="m108.79,25.86V7.13l2.67-7.13c2.38.6,3.86,2.08,4.46,4.46v24.97l-1.78,1.78-5.35-5.35Zm5.35,6.24l1.78,1.78v24.97c-.6,2.38-2.08,3.86-4.46,4.46l-2.67-7.13v-18.73l5.35-5.35Z"/>
  <path class="cls-1" d="m131.98,7.13l-7.13-2.68c.59-2.38,2.08-3.86,4.46-4.46h28.45c2.38.6,3.86,2.08,4.46,4.46l-7.13,2.68h-23.1Zm7.94,20.51V8.92h7.13v18.73l-3.57,3.57-3.57-3.57Zm3.57,5.35l3.57,3.57v23.19c-.6,2.38-2.08,3.87-4.46,4.46l-2.67-7.13v-20.51l3.57-3.57Z"/>
  <path class="cls-1" d="m178.26,8.92v16.94l-5.35,5.35-1.78-1.78V6.24l7.13,2.68Zm0,29.43v18.73l-2.68,7.13c-2.38-.59-3.86-2.08-4.46-4.46v-24.97l1.78-1.78,5.35,5.35Zm21.4-31.21h-21.31l-7.13-2.68c.59-2.38,2.08-3.86,4.46-4.46h26.66l-2.68,7.13Zm1.78,21.4l3.57,3.57-3.57,3.57h-23.19l-3.57-3.57,3.57-3.57h23.19Zm0-2.68V7.13l2.68-7.13c2.38.6,3.86,2.08,4.46,4.46v24.97l-1.78,1.78-5.35-5.35Zm5.35,7.13l1.78,1.78v24.97c-.6,2.38-2.08,3.87-4.46,4.46l-2.68-7.13v-18.73l5.35-5.35Z"/>
  <path class="cls-1" d="m224.63,8.92v16.94l-5.35,5.35-1.78-1.78V6.24l7.13,2.68Zm0,29.43v18.73l-2.68,7.13c-2.38-.59-3.86-2.08-4.46-4.46v-24.97l1.78-1.78,5.35,5.35Zm21.4-31.21h-21.31l-7.13-2.68c.59-2.38,2.08-3.86,4.46-4.46h26.66l-2.68,7.13Zm1.78,21.4l3.57,3.57-3.57,3.57h-23.19l-3.57-3.57,3.57-3.57h23.19Zm-21.4,8.92h5.35l23.19,23.19c-1.19,2.38-3.57,3.57-7.13,3.57l-21.4-21.4v-5.35Zm21.4-11.59V7.13l2.68-7.13c2.38.6,3.86,2.08,4.46,4.46v24.97l-1.78,1.78-5.35-5.35Z"/>
  <path class="cls-1" d="m271,7.13l-7.13-2.68c.59-2.38,2.08-3.86,4.46-4.46h28.45c2.38.6,3.86,2.08,4.46,4.46l-7.13,2.68h-23.1Zm7.94,20.51V8.92h7.13v18.73l-3.57,3.57-3.57-3.57Zm3.57,5.35l3.57,3.57v23.19c-.6,2.38-2.08,3.87-4.46,4.46l-2.67-7.13v-20.51l3.57-3.57Z"/>
</svg>