<?xml version="1.0" encoding="UTF-8"?>
<svg id="_Слой_1" data-name="Слой 1" xmlns="http://www.w3.org/2000/svg" viewBox="0 0 295.59 179.93">
  <defs>
    <style>
      .cls-1 {
        fill: #ea0000;
      }
    </style>
  </defs>
  <g>
    <path class="cls-1" d="m28,123.93H7l-7-2.63v-4.38h28l3.5,3.5-3.5,3.5Zm-21,1.75v16.63l-5.25,5.25-1.75-1.75v-22.75l7,2.63ZM0,173.8v-22.75l1.75-1.75,5.25,5.25v16.63l-7,2.62Zm31.41,2.63l-3.5,3.5H0v-4.38l7-2.62h20.91l3.5,3.5Zm-1.66-34.13v-18.38l2.63-2.63,4.38,4.38v20.13l-1.75,1.75-5.25-5.25Zm5.25,7l1.75,1.75v20.13l-4.38,4.37-2.63-2.62v-18.38l5.25-5.25Z"/>
    <path class="cls-1" d="m45.5,142.3v-18.38l2.62-7c2.33.58,3.79,2.04,4.38,4.38v24.5l-1.75,1.75-5.25-5.25Zm5.25,6.13l1.75,1.75v24.5c-.58,2.33-2.04,3.79-4.38,4.37l-2.62-7v-18.38l5.25-5.25Z"/>
    <path class="cls-1" d="m68.25,125.68v16.63l-5.25,5.25-1.75-1.75v-22.75l7,2.63Zm-7,48.13v-22.75l1.75-1.75,5.25,5.25v16.63l-7,2.62Zm30.63,6.13h-26.25c-2.33-.58-3.79-2.04-4.37-4.38l7-2.62h21l2.63,7Zm0-56h-23.54l-7-2.63c.58-2.33,2.04-3.79,4.38-4.38h28.79l-2.63,7Zm-.88,21l3.5,3.5-3.5,3.5h-7.87l-3.5-3.5,3.5-3.5h7.87Zm5.25,4.38l1.75,1.75v24.5c-.58,2.33-2.04,3.79-4.38,4.38l-2.63-7v-18.38l5.25-5.25Z"/>
    <path class="cls-1" d="m106.75,142.3v-18.38l2.62-7c2.33.58,3.79,2.04,4.38,4.38v24.5l-1.75,1.75-5.25-5.25Zm5.25,6.13l1.75,1.75v24.5c-.58,2.33-2.04,3.79-4.38,4.37l-2.62-7v-18.38l5.25-5.25Z"/>
    <path class="cls-1" d="m129.51,123.93l-7-2.63c.58-2.33,2.04-3.79,4.37-4.38h27.91c2.33.58,3.79,2.04,4.38,4.38l-7,2.63h-22.66Zm7.79,20.13v-18.38h7v18.38l-3.5,3.5-3.5-3.5Zm3.5,5.25l3.5,3.5v22.75c-.58,2.33-2.04,3.79-4.38,4.38l-2.62-7v-20.13l3.5-3.5Z"/>
    <path class="cls-1" d="m174.92,125.68v16.63l-5.25,5.25-1.75-1.75v-22.75l7,2.63Zm0,28.88v18.38l-2.63,7c-2.33-.58-3.79-2.04-4.37-4.38v-24.5l1.75-1.75,5.25,5.25Zm21-30.63h-20.91l-7-2.63c.58-2.33,2.04-3.79,4.38-4.38h26.16l-2.63,7Zm1.75,21l3.5,3.5-3.5,3.5h-22.75l-3.5-3.5,3.5-3.5h22.75Zm0-2.63v-18.38l2.63-7c2.33.58,3.79,2.04,4.38,4.38v24.5l-1.75,1.75-5.25-5.25Zm5.25,7l1.75,1.75v24.5c-.58,2.33-2.04,3.79-4.38,4.38l-2.63-7v-18.38l5.25-5.25Z"/>
    <path class="cls-1" d="m220.42,125.68v16.63l-5.25,5.25-1.75-1.75v-22.75l7,2.63Zm0,28.88v18.38l-2.63,7c-2.33-.58-3.79-2.04-4.37-4.38v-24.5l1.75-1.75,5.25,5.25Zm21-30.63h-20.91l-7-2.63c.58-2.33,2.04-3.79,4.38-4.38h26.16l-2.63,7Zm1.75,21l3.5,3.5-3.5,3.5h-22.75l-3.5-3.5,3.5-3.5h22.75Zm-21,8.75h5.25l22.75,22.75c-1.17,2.33-3.5,3.5-7,3.5l-21-21v-5.25Zm21-11.38v-18.38l2.63-7c2.33.58,3.79,2.04,4.38,4.38v24.5l-1.75,1.75-5.25-5.25Z"/>
    <path class="cls-1" d="m265.92,123.93l-7-2.63c.58-2.33,2.04-3.79,4.37-4.38h27.91c2.33.58,3.79,2.04,4.38,4.38l-7,2.63h-22.66Zm7.79,20.13v-18.38h7v18.38l-3.5,3.5-3.5-3.5Zm3.5,5.25l3.5,3.5v22.75c-.58,2.33-2.04,3.79-4.38,4.38l-2.62-7v-20.13l3.5-3.5Z"/>
  </g>
  <g>
    <g>
      <path class="cls-1" d="m131.37,10.21h-30.62l-10.21-3.83V0h40.83l5.1,5.1-5.1,5.11Zm-30.62,2.55v24.24l-7.66,7.66-2.55-2.55V8.93l10.21,3.83Zm-10.21,70.18v-33.18l2.55-2.55,7.66,7.66v24.24l-10.21,3.83Zm45.81,3.83l-5.1,5.1h-40.71v-6.38l10.21-3.83h30.5l5.1,5.1Zm-2.43-49.77V10.21l3.83-3.83,6.38,6.38v29.35l-2.55,2.55-7.66-7.66Zm7.66,10.21l2.55,2.55v29.35l-6.38,6.38-3.83-3.83v-26.8l7.66-7.66Z"/>
      <polygon class="cls-1" points="154.39 47.21 151.84 49.77 151.84 79.89 139.86 91.87 154.29 91.87 159.89 86.28 160.48 85.69 162.04 84.12 162.04 78.91 162.04 54.87 154.39 47.21"/>
      <path class="cls-1" d="m161.85,13.08v24.24l-7.62,7.66-2.54-2.55V9.25l10.16,3.83Zm30.49-2.55h-30.36l-10.16-3.83c.85-3.4,2.96-5.53,6.35-6.38h37.98l-3.81,10.21Zm2.54,30.72l5.08,5.1-5.08,5.1h-33.03l-5.08-5.1,5.08-5.1h33.03Zm0-3.93V10.52l3.81-10.21c3.39.85,5.5,2.98,6.35,6.38v35.73l-2.54,2.55-7.62-7.66Zm7.62,10.21l2.54,2.55v35.73c-.85,3.4-2.97,5.53-6.35,6.38l-3.81-10.21v-26.8l7.62-7.66Z"/>
    </g>
    <g>
      <rect class="cls-1" x="39.52" y="40.99" width="37.55" height="10.21"/>
      <rect class="cls-1" x="218.52" y="40.99" width="37.55" height="10.21"/>
    </g>
  </g>
</svg>