<?xml version="1.0" encoding="UTF-8"?>
<svg id="_Слой_1" data-name="Слой 1" xmlns="http://www.w3.org/2000/svg" viewBox="0 0 270.62 115.2">
  <defs>
    <style>
      .cls-1 {
        fill: #fff;
      }

      .cls-2 {
        fill: #ea0000;
      }
    </style>
  </defs>
  <g>
    <g>
      <path class="cls-2" d="m114.79,12.76h-38.27l-12.76-4.78V0h51.03l6.38,6.38-6.38,6.38Zm-38.27,3.19v30.3l-9.57,9.57-3.19-3.19V11.16l12.76,4.78Zm-12.76,87.7v-41.46l3.19-3.19,9.57,9.57v30.3l-12.76,4.78Zm57.25,4.78l-6.38,6.38h-50.87v-7.97l12.76-4.78h38.11l6.38,6.38Zm-3.03-62.19V12.76l4.78-4.78,7.97,7.97v36.68l-3.19,3.19-9.57-9.57Zm9.57,12.76l3.19,3.19v36.68l-7.97,7.97-4.78-4.78v-33.49l9.57-9.57Z"/>
      <path class="cls-1" d="m114.73,115.06h-51.22v-8.4l.16-.06,12.84-4.8h38.21l6.63,6.63-6.63,6.63Zm-50.72-.5h50.51l6.13-6.13-6.13-6.13h-37.96l-12.55,4.71v7.55Zm58.75-7.37l-5.04-5.03v-33.69l9.82-9.82,3.44,3.44v36.88l-8.22,8.22Zm-4.54-5.24l4.54,4.53,7.72-7.72v-36.47l-2.94-2.94-9.32,9.32v33.28Zm-54.71,2.06v-41.92l3.44-3.44,9.82,9.82v30.57l-.16.06-13.09,4.91Zm.5-41.72v41l12.26-4.6v-30.02l-9.32-9.32-2.94,2.94Zm2.94-6.13l-3.44-3.44V10.8l13.26,4.97v30.57l-9.82,9.82Zm-2.94-3.65l2.94,2.94,9.32-9.32v-30.02l-12.26-4.6v41Zm63.53,3.65l-9.82-9.82V12.65l5.04-5.04,8.22,8.22v36.88l-3.44,3.44Zm-9.32-10.03l9.32,9.32,2.94-2.94V16.05l-7.72-7.72-4.54,4.54v33.28Zm-3.33-33.13l-38.46-.02-12.92-4.85V-.25h51.38l6.63,6.63-6.63,6.63Zm-38.33-.5h38.12l6.13-6.13L114.68.25h-50.67v7.55l12.55,4.71Z"/>
    </g>
    <g>
      <polygon class="cls-2" points="143.55 59 140.36 62.19 140.36 99.84 125.39 114.81 143.43 114.81 150.42 107.82 151.15 107.08 153.12 105.12 153.12 98.61 153.12 68.57 143.55 59"/>
      <path class="cls-1" d="m143.53,115.06h-18.75l15.33-15.33v-37.65l3.44-3.44,9.82,9.82v36.76l-9.83,9.83Zm-17.54-.5h17.33l9.54-9.54v-36.35l-9.32-9.32-2.94,2.94v37.65l-14.62,14.62Z"/>
    </g>
    <g>
      <path class="cls-2" d="m152.88,16.34v30.3l-9.52,9.57-3.17-3.19V11.56l12.7,4.78Zm38.1-3.19h-37.94l-12.7-4.78c1.06-4.25,3.7-6.91,7.94-7.97h47.47l-4.76,12.76Zm3.17,38.39l6.35,6.38-6.35,6.38h-41.27l-6.35-6.38,6.35-6.38h41.27Zm0-4.91V13.15l4.76-12.76c4.23,1.06,6.88,3.72,7.94,7.97v44.65l-3.17,3.19-9.53-9.57Zm9.53,12.76l3.17,3.19v44.65c-1.06,4.25-3.71,6.91-7.94,7.97l-4.76-12.76v-33.49l9.53-9.57Z"/>
      <path class="cls-1" d="m198.76,115.5l-4.86-13.05v-33.59l9.78-9.82,3.42,3.44v44.75c-1.09,4.39-3.82,7.13-8.13,8.22l-.22.05Zm-4.36-13.1l4.67,12.5c3.99-1.07,6.53-3.67,7.54-7.74v-44.48s-2.93-2.94-2.93-2.94l-9.28,9.32v33.34Zm-.15-37.85h-41.48l-6.6-6.63,6.6-6.63h41.48l6.6,6.63-6.6,6.63Zm-41.27-.5h41.07l6.1-6.13-6.1-6.13h-41.07l-6.1,6.13,6.1,6.13Zm-9.63-7.49l-3.42-3.44V11.19l13.2,4.97v30.57l-9.77,9.82Zm-2.92-3.65l2.92,2.94,9.27-9.32v-30.02l-12.2-4.6v41Zm63.25,3.65l-9.78-9.82.02-33.68L198.76.1l.22.05c4.31,1.08,7.04,3.83,8.12,8.16v44.81s-3.42,3.44-3.42,3.44Zm-9.28-10.03l9.28,9.32,2.92-2.94V8.37c-1.01-4-3.54-6.6-7.53-7.67l-4.67,12.5v33.34Zm-3.25-33.13l-38.2-.02-12.91-4.86.05-.22c1.08-4.33,3.81-7.07,8.12-8.16h47.89s-4.95,13.25-4.95,13.25Zm-38.07-.5h37.72l4.58-12.26h-47.11c-3.99,1.01-6.58,3.56-7.64,7.57l12.45,4.69Z"/>
    </g>
  </g>
  <g>
    <g>
      <rect class="cls-2" y="51.22" width="46.93" height="12.76"/>
      <path class="cls-1" d="m47.18,64.23H-.25v-13.26h47.43v13.26ZM.25,63.73h46.43v-12.26H.25v12.26Z"/>
    </g>
    <g>
      <rect class="cls-2" x="223.69" y="51.22" width="46.93" height="12.76"/>
      <path class="cls-1" d="m270.87,64.23h-47.43v-13.26h47.43v13.26Zm-46.93-.5h46.43v-12.26h-46.43v12.26Z"/>
    </g>
  </g>
</svg>