<?xml version="1.0" encoding="UTF-8"?>
<svg id="_Слой_1" data-name="Слой 1" xmlns="http://www.w3.org/2000/svg" viewBox="0 0 295.59 179.93">
  <defs>
    <style>
      .cls-1 {
        fill: #fff;
      }

      .cls-2 {
        fill: #ea0000;
      }
    </style>
  </defs>
  <g>
    <g>
      <path class="cls-2" d="m28,123.93H7l-7-2.63v-4.38h28l3.5,3.5-3.5,3.5Zm-21,1.75v16.63l-5.25,5.25-1.75-1.75v-22.75l7,2.63ZM0,173.8v-22.75l1.75-1.75,5.25,5.25v16.63l-7,2.62Zm31.41,2.63l-3.5,3.5H0v-4.38l7-2.62h20.91l3.5,3.5Zm-1.66-34.13v-18.38l2.63-2.63,4.38,4.38v20.13l-1.75,1.75-5.25-5.25Zm5.25,7l1.75,1.75v20.13l-4.38,4.37-2.63-2.62v-18.38l5.25-5.25Z"/>
      <path class="cls-1" d="m28.02,180.18H-.25v-4.8l7.25-2.7h21.02l3.75,3.75-3.75,3.75Zm-27.77-.5h27.56l3.25-3.25-3.25-3.25H7.04l-6.79,2.55v3.95Zm32.13-3.77l-2.88-2.88v-18.58l5.5-5.5,2,2v20.33l-4.62,4.62Zm-2.38-3.08l2.38,2.38,4.12-4.12v-19.92l-1.5-1.5-5,5v18.17Zm-30.25,1.34v-23.21l2-2,5.5,5.5v16.9l-7.5,2.81Zm.5-23.01v22.29l6.5-2.44v-16.35l-5-5-1.5,1.5Zm1.5-3.25l-2-2v-23.21l7.5,2.81v16.9l-5.5,5.5Zm-1.5-2.21l1.5,1.5,5-5v-16.35l-6.5-2.44v22.29Zm34.75,2.21l-5.5-5.5v-18.58l2.88-2.88,4.62,4.62v20.33l-2,2Zm-5-5.71l5,5,1.5-1.5v-19.92l-4.12-4.12-2.38,2.38v18.17Zm-1.9-18.02l-21.19-.02-7.16-2.69v-4.8h28.35l3.75,3.75-3.75,3.75Zm-21.06-.5h20.85l3.25-3.25-3.25-3.25H.25v3.95l6.79,2.55Z"/>
    </g>
    <g>
      <path class="cls-2" d="m45.5,142.3v-18.38l2.62-7c2.33.58,3.79,2.04,4.38,4.38v24.5l-1.75,1.75-5.25-5.25Zm5.25,6.13l1.75,1.75v24.5c-.58,2.33-2.04,3.79-4.38,4.37l-2.62-7v-18.38l5.25-5.25Z"/>
      <path class="cls-1" d="m47.97,179.35l-2.72-7.3v-18.48l5.5-5.5,2,2v24.61c-.61,2.48-2.15,4.01-4.56,4.62l-.22.05Zm-2.22-7.34l2.53,6.75c2.13-.6,3.43-1.95,3.98-4.14v-24.34s-1.51-1.5-1.51-1.5l-5,5v18.23Zm5-24.1l-5.5-5.5.02-18.57,2.7-7.21.22.05c2.42.6,3.95,2.14,4.56,4.56v24.67s-1.99,2-1.99,2Zm-5-5.71l5,5,1.5-1.5v-24.4c-.54-2.13-1.84-3.48-3.97-4.08l-2.53,6.75v18.23Z"/>
    </g>
    <g>
      <path class="cls-2" d="m68.25,125.68v16.63l-5.25,5.25-1.75-1.75v-22.75l7,2.63Zm-7,48.13v-22.75l1.75-1.75,5.25,5.25v16.63l-7,2.62Zm30.63,6.13h-26.25c-2.33-.58-3.79-2.04-4.37-4.38l7-2.62h21l2.63,7Zm0-56h-23.54l-7-2.63c.58-2.33,2.04-3.79,4.38-4.38h28.79l-2.63,7Zm-.88,21l3.5,3.5-3.5,3.5h-7.87l-3.5-3.5,3.5-3.5h7.87Zm5.25,4.38l1.75,1.75v24.5c-.58,2.33-2.04,3.79-4.38,4.38l-2.63-7v-18.38l5.25-5.25Z"/>
      <path class="cls-1" d="m93.47,180.23l-2.72-7.3v-18.48l5.5-5.5,2,2v24.6c-.61,2.48-2.15,4.01-4.57,4.62l-.22.05Zm-2.22-7.34l2.53,6.75c2.13-.6,3.43-1.95,3.98-4.14v-24.34s-1.51-1.5-1.51-1.5l-5,5v18.23Zm.99,7.29h-26.61c-2.48-.61-4.01-2.14-4.62-4.56l-.05-.22,7.3-2.72h21.17l2.81,7.5Zm-30.69-4.47c.6,2.13,1.95,3.43,4.14,3.98h25.83s-2.44-6.51-2.44-6.51h-20.78l-6.75,2.53Zm-.55-1.54v-23.21l2-2,5.5,5.5v16.9l-7.5,2.81Zm.5-23.01v22.29l6.5-2.44v-16.35l-5-5-1.5,1.5Zm29.6,1.02h-8.08l-3.75-3.75,3.75-3.75h8.08l3.75,3.75-3.75,3.75Zm-7.87-.5h7.67l3.25-3.25-3.25-3.25h-7.67l-3.25,3.25,3.25,3.25Zm-20.23-3.77l-2-2v-23.21l7.5,2.81v16.9l-5.5,5.5Zm-1.5-2.21l1.5,1.5,5-5v-16.35l-6.5-2.44v22.29Zm30.55-21.52l-23.8-.02-7.21-2.7.05-.22c.6-2.42,2.14-3.95,4.56-4.56h29.21s-2.81,7.49-2.81,7.49Zm-23.67-.5h23.32l2.44-6.5h-28.43c-2.13.54-3.48,1.84-4.08,3.97l6.75,2.53Z"/>
    </g>
    <g>
      <path class="cls-2" d="m106.75,142.3v-18.38l2.62-7c2.33.58,3.79,2.04,4.38,4.38v24.5l-1.75,1.75-5.25-5.25Zm5.25,6.13l1.75,1.75v24.5c-.58,2.33-2.04,3.79-4.38,4.37l-2.62-7v-18.38l5.25-5.25Z"/>
      <path class="cls-1" d="m109.22,179.35l-2.72-7.3v-18.48l5.5-5.5,2,2v24.61c-.61,2.48-2.15,4.01-4.56,4.62l-.22.05Zm-2.22-7.34l2.53,6.75c2.13-.6,3.43-1.95,3.98-4.14v-24.34s-1.51-1.5-1.51-1.5l-5,5v18.23Zm5-24.1l-5.5-5.5.02-18.57,2.7-7.21.22.05c2.42.6,3.95,2.14,4.56,4.56v24.67s-1.99,2-1.99,2Zm-5-5.71l5,5,1.5-1.5v-24.4c-.54-2.13-1.84-3.48-3.97-4.08l-2.53,6.75v18.23Z"/>
    </g>
    <g>
      <path class="cls-2" d="m129.51,123.93l-7-2.63c.58-2.33,2.04-3.79,4.37-4.38h27.91c2.33.58,3.79,2.04,4.38,4.38l-7,2.63h-22.66Zm7.79,20.13v-18.38h7v18.38l-3.5,3.5-3.5-3.5Zm3.5,5.25l3.5,3.5v22.75c-.58,2.33-2.04,3.79-4.38,4.38l-2.62-7v-20.13l3.5-3.5Z"/>
      <path class="cls-1" d="m139.76,180.23l-2.72-7.3v-20.23l3.75-3.75,3.75,3.75v22.85c-.61,2.48-2.15,4.01-4.57,4.62l-.22.05Zm-2.22-7.34l2.53,6.75c2.13-.59,3.43-1.95,3.98-4.14v-22.59s-3.26-3.25-3.26-3.25l-3.25,3.25v19.98Zm3.25-24.98l-3.75-3.75v-18.73h7.5v18.73l-3.75,3.75Zm-3.25-3.96l3.25,3.25,3.25-3.25v-18.02h-6.5v18.02Zm14.67-19.77l-22.8-.02-7.21-2.7.05-.22c.6-2.42,2.14-3.95,4.56-4.56h27.97c2.48.61,4.01,2.14,4.62,4.56l.05.22-7.25,2.72Zm-22.66-.5h22.57l6.75-2.53c-.6-2.13-1.95-3.43-4.14-3.98h-27.85c-2.13.55-3.48,1.85-4.08,3.98l6.75,2.53Z"/>
    </g>
    <g>
      <path class="cls-2" d="m174.92,125.68v16.63l-5.25,5.25-1.75-1.75v-22.75l7,2.63Zm0,28.88v18.38l-2.63,7c-2.33-.58-3.79-2.04-4.37-4.38v-24.5l1.75-1.75,5.25,5.25Zm21-30.63h-20.91l-7-2.63c.58-2.33,2.04-3.79,4.38-4.38h26.16l-2.63,7Zm1.75,21l3.5,3.5-3.5,3.5h-22.75l-3.5-3.5,3.5-3.5h22.75Zm0-2.63v-18.38l2.63-7c2.33.58,3.79,2.04,4.38,4.38v24.5l-1.75,1.75-5.25-5.25Zm5.25,7l1.75,1.75v24.5c-.58,2.33-2.04,3.79-4.38,4.38l-2.63-7v-18.38l5.25-5.25Z"/>
      <path class="cls-1" d="m200.14,180.23l-2.72-7.3v-18.48l5.5-5.5,2,2v24.6c-.61,2.48-2.15,4.01-4.56,4.62l-.22.05Zm-2.22-7.34l2.53,6.75c2.13-.59,3.43-1.95,3.98-4.14v-24.34s-1.51-1.5-1.51-1.5l-5,5v18.23Zm-25.47,7.34l-.22-.05c-2.42-.6-3.95-2.14-4.56-4.56v-24.67s1.99-2,1.99-2l5.5,5.5-.02,18.57-2.7,7.21Zm-4.28-29.07v24.4c.54,2.13,1.84,3.48,3.97,4.08l2.53-6.75v-18.23l-5-5-1.5,1.5Zm29.6,1.02h-22.96l-3.75-3.75,3.75-3.75h22.96l3.75,3.75-3.75,3.75Zm-22.75-.5h22.54l3.25-3.25-3.25-3.25h-22.54l-3.25,3.25,3.25,3.25Zm-5.35-3.77l-2-2v-23.21l7.5,2.81v16.9l-5.5,5.5Zm-1.5-2.21l1.5,1.5,5-5v-16.35l-6.5-2.44v22.29Zm34.75,2.21l-5.5-5.5.02-18.57,2.71-7.21.22.05c2.42.61,3.95,2.14,4.56,4.56v24.67s-1.99,2-1.99,2Zm-5-5.71l5,5,1.5-1.5v-24.4c-.54-2.13-1.84-3.48-3.97-4.08l-2.53,6.75v18.23Zm-1.83-18.02l-21.17-.02-7.21-2.7.05-.22c.6-2.42,2.14-3.95,4.56-4.56h26.58s-2.81,7.49-2.81,7.49Zm-21.04-.5h20.7l2.44-6.5h-25.8c-2.13.54-3.48,1.84-4.08,3.97l6.75,2.53Z"/>
    </g>
    <g>
      <path class="cls-2" d="m220.42,125.68v16.63l-5.25,5.25-1.75-1.75v-22.75l7,2.63Zm0,28.88v18.38l-2.63,7c-2.33-.58-3.79-2.04-4.37-4.38v-24.5l1.75-1.75,5.25,5.25Zm21-30.63h-20.91l-7-2.63c.58-2.33,2.04-3.79,4.38-4.38h26.16l-2.63,7Zm1.75,21l3.5,3.5-3.5,3.5h-22.75l-3.5-3.5,3.5-3.5h22.75Zm-21,8.75h5.25l22.75,22.75c-1.17,2.33-3.5,3.5-7,3.5l-21-21v-5.25Zm21-11.38v-18.38l2.63-7c2.33.58,3.79,2.04,4.38,4.38v24.5l-1.75,1.75-5.25-5.25Z"/>
      <path class="cls-1" d="m217.95,180.23l-.22-.05c-2.42-.6-3.95-2.14-4.56-4.56v-24.67s1.99-2,1.99-2l5.5,5.5-.02,18.57-2.7,7.21Zm-4.28-29.07v24.4c.54,2.13,1.84,3.48,3.97,4.08l2.53-6.75v-18.23l-5-5-1.5,1.5Zm29.5,29.02h-.1l-21.15-21.15v-5.6h5.6l22.95,22.95-.08.16c-1.21,2.41-3.64,3.64-7.22,3.64Zm-20.75-21.36l20.85,20.86c3.24-.02,5.46-1.1,6.59-3.2l-22.55-22.55h-4.9v4.9Zm20.85-6.65h-22.96l-3.75-3.75,3.75-3.75h22.96l3.75,3.75-3.75,3.75Zm-22.75-.5h22.54l3.25-3.25-3.25-3.25h-22.54l-3.25,3.25,3.25,3.25Zm-5.35-3.77l-2-2v-23.21l7.5,2.81v16.9l-5.5,5.5Zm-1.5-2.21l1.5,1.5,5-5v-16.35l-6.5-2.44v22.29Zm34.75,2.21l-5.5-5.5.02-18.57,2.7-7.21.22.05c2.42.61,3.95,2.14,4.56,4.56v24.67s-1.99,2-1.99,2Zm-5-5.71l5,5,1.5-1.5v-24.4c-.54-2.13-1.84-3.48-3.97-4.08l-2.53,6.75v18.23Zm-1.83-18.02l-21.17-.02-7.21-2.7.05-.22c.6-2.42,2.14-3.95,4.56-4.56h26.58s-2.81,7.49-2.81,7.49Zm-21.04-.5h20.7l2.44-6.5h-25.8c-2.13.54-3.48,1.84-4.08,3.97l6.75,2.53Z"/>
    </g>
    <g>
      <path class="cls-2" d="m265.92,123.93l-7-2.63c.58-2.33,2.04-3.79,4.37-4.38h27.91c2.33.58,3.79,2.04,4.38,4.38l-7,2.63h-22.66Zm7.79,20.13v-18.38h7v18.38l-3.5,3.5-3.5-3.5Zm3.5,5.25l3.5,3.5v22.75c-.58,2.33-2.04,3.79-4.38,4.38l-2.62-7v-20.13l3.5-3.5Z"/>
      <path class="cls-1" d="m276.18,180.23l-2.72-7.3v-20.23l3.75-3.75,3.75,3.75v22.85c-.61,2.48-2.15,4.01-4.57,4.62l-.22.05Zm-2.22-7.34l2.53,6.75c2.13-.59,3.43-1.95,3.98-4.14v-22.59s-3.26-3.25-3.26-3.25l-3.25,3.25v19.98Zm3.25-24.98l-3.75-3.75v-18.73h7.5v18.73l-3.75,3.75Zm-3.25-3.96l3.25,3.25,3.25-3.25v-18.02h-6.5v18.02Zm14.67-19.77l-22.8-.02-7.21-2.7.05-.22c.6-2.42,2.14-3.95,4.56-4.56h27.97c2.48.61,4.01,2.14,4.62,4.56l.05.22-7.25,2.72Zm-22.66-.5h22.57l6.75-2.53c-.6-2.13-1.95-3.43-4.14-3.98h-27.85c-2.13.55-3.48,1.85-4.08,3.98l6.75,2.53Z"/>
    </g>
  </g>
  <g>
    <g>
      <g>
        <path class="cls-2" d="m131.37,10.21h-30.62l-10.21-3.83V0h40.83l5.1,5.1-5.1,5.11Zm-30.62,2.55v24.24l-7.66,7.66-2.55-2.55V8.93l10.21,3.83Zm-10.21,70.18v-33.18l2.55-2.55,7.66,7.66v24.24l-10.21,3.83Zm45.81,3.83l-5.1,5.1h-40.71v-6.38l10.21-3.83h30.5l5.1,5.1Zm-2.43-49.77V10.21l3.83-3.83,6.38,6.38v29.35l-2.55,2.55-7.66-7.66Zm7.66,10.21l2.55,2.55v29.35l-6.38,6.38-3.83-3.83v-26.8l7.66-7.66Z"/>
        <path class="cls-1" d="m131.35,92.12h-41.06v-6.8l.16-.06,10.3-3.84h30.6l5.35,5.35-5.35,5.35Zm-40.56-.5h40.35l4.85-4.85-4.85-4.85h-30.35l-10,3.75v5.96Zm46.96-5.78l-4.08-4.08v-27l7.91-7.91,2.8,2.8v29.56l-6.63,6.63Zm-3.58-4.28l3.58,3.58,6.13-6.13v-29.14l-2.3-2.3-7.41,7.41v26.59Zm-43.88,1.74v-33.64l2.8-2.8,7.91,7.91v24.52l-.16.06-10.55,3.95Zm.5-33.43v32.71l9.71-3.64v-23.97l-7.41-7.41-2.3,2.3Zm2.3-4.85l-2.8-2.8V8.57l10.71,4.02v24.52l-7.91,7.91Zm-2.3-3.01l2.3,2.3,7.41-7.41V12.93l-9.71-3.64v32.71Zm50.79,3.01l-7.91-7.91V10.11l4.08-4.08,6.63,6.63v29.56l-2.8,2.8Zm-7.41-8.11l7.41,7.41,2.3-2.3V12.86l-6.13-6.13-3.58,3.58v26.59Zm-2.7-26.44l-30.82-.02-10.37-3.89V-.25h41.19l5.35,5.35-5.35,5.36Zm-30.68-.5h30.48l4.85-4.86-4.85-4.85h-40.48v5.96l10,3.75Z"/>
      </g>
      <g>
        <polygon class="cls-2" points="154.39 47.21 151.84 49.77 151.84 79.89 139.86 91.87 154.29 91.87 159.89 86.28 160.48 85.69 162.04 84.12 162.04 78.91 162.04 54.87 154.39 47.21"/>
        <path class="cls-1" d="m154.4,92.12h-15.14l12.33-12.33v-30.13l2.8-2.8,7.91,7.91v29.46l-7.9,7.9Zm-13.94-.5h13.73l7.61-7.61v-29.05l-7.41-7.41-2.3,2.3v30.13l-11.63,11.63Z"/>
      </g>
      <g>
        <path class="cls-2" d="m161.85,13.08v24.24l-7.62,7.66-2.54-2.55V9.25l10.16,3.83Zm30.49-2.55h-30.36l-10.16-3.83c.85-3.4,2.96-5.53,6.35-6.38h37.98l-3.81,10.21Zm2.54,30.72l5.08,5.1-5.08,5.1h-33.03l-5.08-5.1,5.08-5.1h33.03Zm0-3.93V10.52l3.81-10.21c3.39.85,5.5,2.98,6.35,6.38v35.73l-2.54,2.55-7.62-7.66Zm7.62,10.21l2.54,2.55v35.73c-.85,3.4-2.97,5.53-6.35,6.38l-3.81-10.21v-26.8l7.62-7.66Z"/>
        <path class="cls-1" d="m198.54,92.49l-3.91-10.5v-26.9l7.87-7.91,2.79,2.8v35.83c-.88,3.55-3.07,5.75-6.54,6.62l-.22.05Zm-3.41-10.55l3.72,9.95c3.15-.86,5.15-2.92,5.96-6.14v-35.56s-2.3-2.3-2.3-2.3l-7.37,7.4v26.65Zm-.15-30.23h-33.23l-5.33-5.35,5.33-5.35h33.23l5.33,5.35-5.33,5.35Zm-33.03-.5h32.82l4.83-4.85-4.83-4.85h-32.82l-4.83,4.85,4.83,4.85Zm40.55-5.88l-7.87-7.91.02-26.99L198.54.02l.22.05c3.47.87,5.67,3.08,6.53,6.56v35.89s-2.78,2.8-2.78,2.8Zm-7.37-8.12l7.37,7.41,2.29-2.3V6.7c-.79-3.16-2.8-5.22-5.95-6.08l-3.72,9.96v26.65Zm-40.9,8.12l-2.79-2.8V8.89l10.66,4.02v24.52l-7.87,7.91Zm-2.29-3.01l2.29,2.3,7.37-7.41V13.25l-9.66-3.64v32.71Zm40.57-31.55l-30.62-.02-10.37-3.91.05-.22c.87-3.48,3.07-5.69,6.53-6.56h38.4s-4,10.7-4,10.7Zm-30.49-.5h30.14l3.62-9.71h-37.62c-3.14.8-5.2,2.81-6.05,5.98l9.91,3.73Z"/>
      </g>
    </g>
    <g>
      <g>
        <rect class="cls-2" x="39.52" y="40.99" width="37.55" height="10.21"/>
        <path class="cls-1" d="m77.32,51.45h-38.05v-10.71h38.05v10.71Zm-37.55-.5h37.05v-9.71h-37.05v9.71Z"/>
      </g>
      <g>
        <rect class="cls-2" x="218.52" y="40.99" width="37.55" height="10.21"/>
        <path class="cls-1" d="m256.32,51.45h-38.05v-10.71h38.05v10.71Zm-37.55-.5h37.05v-9.71h-37.05v9.71Z"/>
      </g>
    </g>
  </g>
</svg>