<?xml version="1.0" encoding="UTF-8"?>
<svg id="_Слой_1" data-name="Слой 1" xmlns="http://www.w3.org/2000/svg" viewBox="0 0 270.62 115.2">
  <defs>
    <style>
      .cls-1 {
        fill: #ea0000;
      }
    </style>
  </defs>
  <g>
    <path class="cls-1" d="m114.79,12.76h-38.27l-12.76-4.78V0h51.03l6.38,6.38-6.38,6.38Zm-38.27,3.19v30.3l-9.57,9.57-3.19-3.19V11.16l12.76,4.78Zm-12.76,87.7v-41.46l3.19-3.19,9.57,9.57v30.3l-12.76,4.78Zm57.25,4.78l-6.38,6.38h-50.87v-7.97l12.76-4.78h38.11l6.38,6.38Zm-3.03-62.19V12.76l4.78-4.78,7.97,7.97v36.68l-3.19,3.19-9.57-9.57Zm9.57,12.76l3.19,3.19v36.68l-7.97,7.97-4.78-4.78v-33.49l9.57-9.57Z"/>
    <polygon class="cls-1" points="143.55 59 140.36 62.19 140.36 99.84 125.39 114.81 143.43 114.81 150.42 107.82 151.15 107.08 153.12 105.12 153.12 98.61 153.12 68.57 143.55 59"/>
    <path class="cls-1" d="m152.88,16.34v30.3l-9.52,9.57-3.17-3.19V11.56l12.7,4.78Zm38.1-3.19h-37.94l-12.7-4.78c1.06-4.25,3.7-6.91,7.94-7.97h47.47l-4.76,12.76Zm3.17,38.39l6.35,6.38-6.35,6.38h-41.27l-6.35-6.38,6.35-6.38h41.27Zm0-4.91V13.15l4.76-12.76c4.23,1.06,6.88,3.72,7.94,7.97v44.65l-3.17,3.19-9.53-9.57Zm9.53,12.76l3.17,3.19v44.65c-1.06,4.25-3.71,6.91-7.94,7.97l-4.76-12.76v-33.49l9.53-9.57Z"/>
  </g>
  <g>
    <rect class="cls-1" y="51.22" width="46.93" height="12.76"/>
    <rect class="cls-1" x="223.69" y="51.22" width="46.93" height="12.76"/>
  </g>
</svg>